<svg xmlns="http://www.w3.org/2000/svg" viewBox="0 0 393.78 94.38"><defs><style>.cls-1,.cls-2{fill:#fff;}.cls-1{fill-rule:evenodd;}</style></defs><g id="レイヤー_2" data-name="レイヤー 2"><g id="レイヤー_1-2" data-name="レイヤー 1"><path class="cls-1" d="M47.11,84.84h.11c-.12.36-1.26,1-1.65,1.76v.29a2,2,0,0,0,1.37.22l.05.06c.09,1.07-.32,2.32,1.08,2.5l.63-1.41a3.31,3.31,0,0,1,4-1.43l.06.12c-.67.28-1.27.44-1.31,1.36l1.48.17L54,89a2.33,2.33,0,0,1,.11.28c-.48.54-.93.52-1,1.59,2.6-.22,2,.81,2.84,2.51.11.16,0,.09.23.16.32-1.54.79-3.21,2.73-2.61H59a1.14,1.14,0,0,0-.85-1.48l-.06-.28a3.76,3.76,0,0,1,2.56-.8.39.39,0,0,1,.06-.11c-.05-.76-.51-1.08-1.2-1.2a.39.39,0,0,0-.06-.11c.21-.23.43-.2.8-.29a3.2,3.2,0,0,1,3.7,3l.11,0c1.28-.09,1.26-1.27,1.09-2.38v-.06L66.51,87l.12-.17c-.13-1.24-1.14-1.16-1.65-1.93,1.22-.78,2.42-1,3.12-2.28,1.12-2-.22-3.86-2.27-3.64l-.12.17c1.71,3.95-2.53,3.35-4.95,4.33a6.48,6.48,0,0,0-3.53,3.41L57,87c.29-2.8,3-4.66.74-7.69A5,5,0,0,0,56,77.61c-1.39,1-3.11,2.77-2.39,5.35.38,1.37,1.33,2.41,1.54,3.93V87l-.11,0a7.64,7.64,0,0,0-3.36-3.41c-1.72-.82-6.2-.4-5.64-3.36.12-.39.23-.8.34-1.19-1.68-.61-3.07,1-2.62,2.84C44.22,83.6,45.7,84.08,47.11,84.84Z"/><path class="cls-1" d="M60.89,2.85c-1.27,2.9.83,5.79,3.71,8l-.17.21a7.44,7.44,0,0,0-3.79,1.68c0,.06,0,.12,0,.19.52,1,1.54,1,2.36,1.49-.93,2-1.85,3,.16,4.56.64-.26.94-1.09,1.65-1.67,2.36-1.95,5.14-2.49,8-.4l.1.3c-1,.31-2.09.21-3.14.83-2.41,1.39-2.83,4.5-1.1,6,.85-.39,1.55-1.18,2.46-1.12,3,.16,3.74,4,2.14,6.09l.42.33c2.15-3,4.3-11.13,8.5-9.56l.41-.24c.57-3-3.37-5.67-5.71-2.54h-.13c-.7-.81-.69-1.85-1.16-2.71l-2.24-2.77c-3.15-3.36-12.08-4.5-6.7-10.12,0-.1-.07-.2-.1-.3C65.37-.79,61.85.64,60.89,2.85Z"/><path class="cls-1" d="M90.15,80.79H90a2.19,2.19,0,0,1-1.15,1c-1.67-.08-1.86-2-2.92-2.73l-1-.53h-.09v0c1.42-.28,2.84-.75,2.87-2.4-.39-.16-.92.19-1.49.1a18,18,0,0,0-3.2-.67c.66-.68,1.58-.72,1.82-1.87.54-2.56-2.11-4.24-3.63-2.49v.2c.78.16,1.64.05,2,.81-.16.19-.54.27-.76.38v.19a.94.94,0,0,1,.76.53c-.53,1.3-1.93,1.25-3.39,1a1.8,1.8,0,0,1,0-.19,1.67,1.67,0,0,0,.19-1.87c-.69.17-1.21.63-2,.77-1.27.21-2.22-.77-3.59-.58A3,3,0,0,0,72.06,77a5.83,5.83,0,0,0,1.43,1.58c.68.48,1.56.64,1.82,1.53l.15.1c.16-.11.31-.23.48-.34a1.87,1.87,0,0,0-.29-1.43,7.43,7.43,0,0,0,1.77-.15,1.7,1.7,0,0,0,.28-3h0c-1.13,2.24-4.88,1-4.45-1.72,2.5-1.89,6.37,1.33,6.22,3.87.58.28.83-.25,1.15-.52,1,1.11.88,3.83-.48,4.45a.69.69,0,0,1-.72-.44h-.19a1.88,1.88,0,0,0,2.25,2.45c1.61-.55,1.37-2.23,1.53-4.12l.1-.05a4.65,4.65,0,0,1,.19,4.07l0,.1c.58.11.77-.15,1.1-.39.06.4-.23.69-.42,1-1.07,1.42-2.78.38-3.21.76-.22,1.1.59,1.18,1.14,1.64-.13.25-.28.5-.43.76a2.5,2.5,0,0,1,0,.29l1,.1c-.74,1-2.25.93-3.49.66H79c-.19.71.33.9.63,1.24v.06c-.91.13-1.42-.76-2.11-.63A2,2,0,0,0,77.7,90l-.09,0c-1-.38-1.17-1-1-2.25l-.19-.1c-.38-.15-.71.12-1,.24l-.13-.09c0-1.27.55-1.87,1.81-1.82a1.21,1.21,0,0,0,0-.14c-.22-.64-.59-.81-1.29-1l0-.1a1.75,1.75,0,0,1,2.64,1.2L78,87.2a2.36,2.36,0,0,0,1.25-.28c.81-2-1.38-4.15-3.87-3.44A3.52,3.52,0,0,0,73,86.15c-.79,3.2,1.87,5.83,4.16,6.28,1.54.29,2.49-.45,3.4-.77h0A2.84,2.84,0,0,1,80.91,93a4.13,4.13,0,0,0,1.16,1,1.68,1.68,0,0,0,2.52-1.34.36.36,0,0,0,0-.09,2.94,2.94,0,0,1-1.29-.24c-1.21-.79-.6-3.21-.15-4.31h.06c.42.65-.06,1.87.47,2.4.72.72,2.8,1.37,3-.29-.45-.43-1.26-.29-1.53-.91-.67-1.46.65-2.85,1-4a4.88,4.88,0,0,0-.81-3.73c.85.36,2.55,3.25,2.2,4.79a14.3,14.3,0,0,0-.33,1.43c1.75.56,2.73-1.16,2.14-3a8.26,8.26,0,0,1-.47-1.1c.56-.29.94.1,1.19.53h.2l.15-.3c-.06-.37-.19-.36-.25-.71A1.58,1.58,0,0,0,90.15,80.79Z"/><path class="cls-1" d="M93.55,62.62v-.07c4.23.92,7.16-1.61,10.9.07.85-.52.06-2.09-.24-2.63a6.7,6.7,0,0,0-5.53-3.37v-.07l.3-.31c3-.12,4.58-3,6.24-4.73.73-.76,2.17-2,3.68-1.25,1,.47,1.29,1.54,2,2.23l.2,0c2.1-2.3,1.6-2.79.25-5.12.21-.66.77-1.26.67-2.14H112c-1.12.37-1.5,1.53-3.31,1l-.06-.15c.42-.78.83-1.56,1.24-2.35,1.53-3.9.64-7.33-4-7.08l0,.34c1.86,4.76-2.38,11.58-5.64,13.29,1.17-1.4,3.28-3.62,3-6.45-.35-4.39-5.27-11.52,2.06-12.3l0-.41c-1.19-3.94-5.9-2.51-7.23.32a8.21,8.21,0,0,0-.67,3L97.28,36l-.19-.15c-.25-2.67-2.1-7.77.8-9.74.66-.45,3.11-.45,3.27-.6.93-1.86-2.09-4.14-4.34-3.75-2.52.45-3.71,2.46-4.48,5l-.21,0a17.79,17.79,0,0,0-3.73-2c-6.14-2.11-11.15,2.66-12.8,6.68-1.11,2.7-1.42,6.39-.23,8.77,2.52,5,9.36,5,12.48.83,1.48-2,1.08-5.72-2.31-4.94v.2a3.13,3.13,0,0,1-1.76,5.06c-1.23.26-3.25-.11-3.68-.94,0,0,0-.09.07-.13l1.09.16c0-.15.12-.31.17-.47l1.16.1c.37-.61.86-.89.91-1.76l-.33,0c-2.74.62-3.73-2.79-3.23-4.61l.27,0a2.23,2.23,0,0,0,2.48.63l0-.41c-.84-1.84,1.08-4.22,2.79-4.35l.4.17-.15.19c-.35,0-.27,0-.43.17a2.26,2.26,0,0,0-.08,2.47l.27,0a5.2,5.2,0,0,1,4.58-1.31v.07c-.06.08-.11.17-.17.26a2.14,2.14,0,0,0-1.86,2.51l1.75-.47c2.49-.21,5.46,1.28,6.14,2.67a9.18,9.18,0,0,0-2.39-.07c-.38.76.32,1.62.36,2.16-1.85.4-2.46,2.07-2.5,4.24,4.31-1.79,7.09.2,7.79,4.18h-.07v-.14c-.94-.88-1.37-1.51-3.16-1.45a6.39,6.39,0,0,1,1.32,2.17C97.75,49.89,96,54,95,54.79h-.06v-.13c.15-.88.29-1.76.44-2.64a7.13,7.13,0,0,0-1.83-6.41c-2.93-2.4-7.91.89-6.37,4.51A.91.91,0,0,0,87.4,50a1.69,1.69,0,0,1,1.87-1l1.14,1.06a8.25,8.25,0,0,1-.3,8.07c-.34.47-.37,1-1,1.14a1.83,1.83,0,0,0-1.84-1.74l-.35.11c.31,4.17-4.84,8.09-8.11,8.68-2,.35-5.47.43-6.27-1.25-1.9-4,4.89-7,8.57-5.34,1.21.55.9,1.42,1.5,2.47,2.38-.85,2.84-4.47.95-6.09-1.59-1.36-2.64-.81-4.63-1.24l0-.33c1-1.29,1.26-2.83-.28-3.73l-.21,0c-.35,2-2.63,2.36-4,3.15A11.2,11.2,0,0,0,70,58.61a7.2,7.2,0,0,0-.56,3.24c.53,7.41,6.06,6,12.14,5.46,2.52-.23,3.56,1.81,5.36,2.12a3.33,3.33,0,0,0-.31-4.14l.09-.33a18.14,18.14,0,0,0,2.64-.39c2.65-.26,3.93,1.41,4.84,2.69a1.54,1.54,0,0,1-.22.88c-.4.51-1.09.42-1.64.74a1.74,1.74,0,0,1,0,.22,7.65,7.65,0,0,0,1.65.69,2.73,2.73,0,0,1,0,.41c-1.12,1.46-2.66,1.08-4.64,1.38v.06c.56,1.9,4.33,2.66,6.1,1.57a5.21,5.21,0,0,0,2-3C98.79,66.27,96.7,63.57,93.55,62.62Z"/><path class="cls-1" d="M46,1.15c0,.1-.06.2-.1.3,5.37,5.62-3.55,6.76-6.69,10.12L37,14.34c-.47.86-.46,1.9-1.16,2.71h-.12c-2.35-3.13-6.29-.48-5.71,2.54l.41.24c4.2-1.57,6.34,6.55,8.49,9.56l.42-.33C37.7,27,38.42,23.12,41.43,23c.91-.06,1.61.73,2.47,1.12,1.72-1.54,1.3-4.65-1.1-6-1.06-.62-2.1-.52-3.14-.83a2.11,2.11,0,0,1,.1-.3c2.87-2.09,5.65-1.55,8,.4.7.58,1,1.41,1.64,1.67,2-1.6,1.09-2.54.17-4.56.82-.51,1.83-.49,2.35-1.49,0-.07,0-.13,0-.19a7.44,7.44,0,0,0-3.79-1.68l-.17-.21c2.89-2.21,5-5.1,3.71-8C50.68.64,47.16-.79,46,1.15Z"/><path class="cls-1" d="M22.43,83.09c-.06.35-.19.34-.24.71,0,.11.1.2.15.3h.19c.26-.43.63-.82,1.19-.53a7.11,7.11,0,0,1-.48,1.1c-.58,1.85.4,3.57,2.16,3-.07-.49-.24-1-.34-1.43-.35-1.54,1.35-4.43,2.21-4.79a4.84,4.84,0,0,0-.82,3.73c.31,1.13,1.62,2.52,1,4-.28.62-1.08.48-1.53.91.21,1.66,2.3,1,3,.29.53-.53.05-1.75.48-2.4h.05c.45,1.1,1.06,3.52-.14,4.31a3,3,0,0,1-1.3.24.41.41,0,0,1-.05.09A1.7,1.7,0,0,0,30.47,94a4.23,4.23,0,0,0,1.15-1A2.86,2.86,0,0,1,32,91.66h0c.91.32,1.86,1.06,3.41.77,2.28-.45,4.94-3.08,4.16-6.28a3.53,3.53,0,0,0-2.4-2.67c-2.49-.71-4.68,1.43-3.88,3.44a2.34,2.34,0,0,0,1.25.28l-.43-1.14a1.74,1.74,0,0,1,2.63-1.2.3.3,0,0,0,0,.1c-.71.15-1.08.32-1.29,1a1,1,0,0,0,0,.14c1.26,0,1.78.55,1.82,1.82l-.15.09c-.26-.12-.58-.39-.95-.24l-.2.1c.12,1.21-.1,1.87-1,2.25l-.09,0a1.92,1.92,0,0,0,.19-1.2c-.69-.13-1.2.76-2.11.63V89.4c.3-.34.83-.53.62-1.24h-.05c-1.24.27-2.75.33-3.49-.66l1-.1c0-.1,0-.2,0-.29l-.42-.76c.55-.46,1.36-.54,1.15-1.64-.44-.38-2.14.66-3.21-.76-.2-.27-.5-.56-.43-1,.34.24.52.5,1.1.39a.47.47,0,0,1,.05-.1,4.59,4.59,0,0,1,.19-4.07l.09.05c.17,1.89-.08,3.57,1.53,4.12a1.88,1.88,0,0,0,2.25-2.45h-.19a.69.69,0,0,1-.72.44C31.07,80.75,30.9,78,32,76.92c.31.27.56.8,1.14.52-.15-2.54,3.72-5.76,6.22-3.87.44,2.71-3.31,4-4.45,1.72h0a1.71,1.71,0,0,0,.28,3,7.43,7.43,0,0,0,1.77.15,1.87,1.87,0,0,0-.28,1.43l.47.34.15-.1c.27-.89,1.15-1.05,1.82-1.53A5.68,5.68,0,0,0,40.47,77a3,3,0,0,0-2.19-4.69c-1.38-.19-2.32.79-3.6.58-.8-.14-1.32-.6-2-.77a1.67,1.67,0,0,0,.2,1.87,1.05,1.05,0,0,0,0,.19c-1.46.29-2.86.34-3.4-1a1,1,0,0,1,.77-.53v-.19c-.22-.11-.61-.19-.77-.38.31-.76,1.17-.65,2-.81v-.2c-1.53-1.75-4.18-.07-3.64,2.49.25,1.15,1.16,1.19,1.82,1.87a18.36,18.36,0,0,0-3.21.67c-.56.09-1.09-.26-1.48-.1,0,1.65,1.45,2.12,2.87,2.4v0h-.09l-1,.53c-1.06.73-1.25,2.65-2.92,2.73a2.13,2.13,0,0,1-1.14-1h-.2A1.59,1.59,0,0,0,22.43,83.09Z"/><path class="cls-1" d="M15.06,70.23a5.26,5.26,0,0,0,2,3c1.77,1.09,5.54.33,6.1-1.57v-.06c-2-.3-3.52.08-4.64-1.38a2.73,2.73,0,0,1,0-.41,7.45,7.45,0,0,0,1.65-.69,1.74,1.74,0,0,0,0-.22c-.54-.32-1.25-.23-1.64-.74a1.54,1.54,0,0,1-.22-.88c.91-1.28,2.2-3,4.84-2.69a18.14,18.14,0,0,0,2.64.39c0,.11.06.22.1.33a3.32,3.32,0,0,0-.32,4.14c1.81-.31,2.83-2.35,5.37-2.12,6.07.56,11.6,2,12.13-5.46a7.2,7.2,0,0,0-.56-3.24,11.2,11.2,0,0,0-4.46-4.68c-1.41-.79-3.69-1.12-4.05-3.15l-.21,0c-1.54.9-1.33,2.44-.28,3.73l0,.33c-2,.43-3-.12-4.62,1.24-1.89,1.62-1.44,5.24,1,6.09.6-1.05.28-1.92,1.49-2.47,3.68-1.66,10.48,1.33,8.57,5.34-.8,1.68-4.27,1.6-6.27,1.25-3.27-.59-8.41-4.51-8.11-8.68l-.35-.11a1.82,1.82,0,0,0-1.83,1.74c-.63-.14-.65-.67-1-1.14a8.25,8.25,0,0,1-.3-8.07L23.26,49a1.69,1.69,0,0,1,1.87,1l.22.11c1.54-3.62-3.44-6.91-6.37-4.51A7.15,7.15,0,0,0,17.15,52c.14.88.29,1.76.44,2.64v.13h-.07c-1-.8-2.75-4.9-2.29-7.35a6.21,6.21,0,0,1,1.31-2.17c-1.79-.06-2.22.57-3.16,1.45v.14h-.07c.71-4,3.48-6,7.79-4.18,0-2.17-.65-3.84-2.5-4.24,0-.54.74-1.4.36-2.16a9.18,9.18,0,0,0-2.39.07c.68-1.39,3.66-2.88,6.14-2.67l1.75.47a2.14,2.14,0,0,0-1.86-2.51c-.06-.09-.11-.18-.17-.26v-.07c1.54-.54,3.84.49,4.57,1.31l.28,0a2.28,2.28,0,0,0-.08-2.47c-.17-.2-.09-.16-.43-.17l-.16-.19.4-.17c1.71.13,3.62,2.51,2.78,4.35l0,.41a2.23,2.23,0,0,0,2.48-.63l.28,0c.49,1.82-.5,5.23-3.23,4.61l-.34,0c.05.87.54,1.15.91,1.76l1.16-.1c.06.16.12.32.17.47l1.09-.16.08.13c-.44.83-2.45,1.2-3.69.94A3.13,3.13,0,0,1,27,36.32l0-.2c-3.39-.78-3.79,2.93-2.31,4.94,3.12,4.21,10,4.19,12.48-.83,1.19-2.38.88-6.07-.23-8.77-1.65-4-6.66-8.79-12.8-6.68a17.79,17.79,0,0,0-3.73,2l-.2,0c-.77-2.57-2-4.58-4.49-5-2.25-.39-5.28,1.89-4.34,3.75.16.15,2.62.15,3.28.6,2.89,2,1,7.07.79,9.74l-.19.15-.14-1.56a8.21,8.21,0,0,0-.67-3c-1.33-2.83-6-4.26-7.23-.32l0,.41c7.33.78,2.41,7.91,2.06,12.3-.23,2.83,1.87,5,3,6.45C9.08,48.6,4.84,41.78,6.7,37l0-.34c-4.61-.25-5.5,3.18-4,7.08l1.24,2.35-.06.15c-1.81.52-2.19-.64-3.31-1H.5c-.1.88.46,1.48.67,2.14-1.35,2.33-1.85,2.82.25,5.12l.21,0c.7-.69,1-1.76,2-2.23,1.51-.72,3,.49,3.68,1.25,1.66,1.75,3.27,4.61,6.24,4.73l.31.31v.07A6.7,6.7,0,0,0,8.32,60c-.3.54-1.09,2.11-.24,2.63,3.74-1.68,6.67.85,10.89-.07v.07C15.83,63.57,13.74,66.27,15.06,70.23Z"/><path class="cls-1" d="M42.23,39.43a13.89,13.89,0,0,0,7.27,12.2c-.1,1.83-1.19,22.09-1.19,22.09H63.92s-1.1-20.26-1.2-22.08A13.88,13.88,0,1,0,42.23,39.43ZM52.62,50.79l.05-1-1-.43a10.82,10.82,0,1,1,8.81,0l-1,.43s1,18.15,1.13,20.91H51.55C51.7,67.89,52.62,50.79,52.62,50.79Z"/><path class="cls-2" d="M177.57,77.81v.81h.22a1.07,1.07,0,0,1,.78.24,1,1,0,0,1,.22.7,2.87,2.87,0,0,1-.13.87l-1.8,6.42-3.34-9h-.8l-2.79,8.72-2.24-6.64a2.67,2.67,0,0,1-.15-.73.35.35,0,0,1,.14-.33,2.22,2.22,0,0,1,.81-.18.36.36,0,0,0,.23-.06l.07-.06v-.71l-4.84,0v.79l.33,0a1,1,0,0,1,.79.29,3,3,0,0,1,.54,1.13l3.15,10.07.05.15h.7l3-9.34,3.42,9.17.05.14h.7l2.6-9a12.93,12.93,0,0,1,.78-2.12,1.21,1.21,0,0,1,1-.53l.2,0V77.8Z"/><path class="cls-2" d="M186.28,82.13h0a4,4,0,0,0-4,4.07,3.76,3.76,0,0,0,1.14,2.69A4,4,0,0,0,186.27,90h0a3.88,3.88,0,0,0,2.88-1.15,3.71,3.71,0,0,0,1.15-2.69,4,4,0,0,0-4-4Zm0,7.09a1.8,1.8,0,0,1-1.58-.71,3.83,3.83,0,0,1-.56-2.26,4.66,4.66,0,0,1,.54-2.51,1.78,1.78,0,0,1,1.59-.78h0a1.79,1.79,0,0,1,1.59.77,4.54,4.54,0,0,1,.56,2.5,3.92,3.92,0,0,1-.52,2.25,1.82,1.82,0,0,1-1.62.74Z"/><path class="cls-2" d="M200.68,88.89h0c-.41,0-.66-.08-.76-.27a5.82,5.82,0,0,1-.1-1.68l0-4.86h-3v.83h.4c.3,0,.67,0,.79.27a4.82,4.82,0,0,1,.12,1.64v1.49a3.52,3.52,0,0,1-.08,1,2.25,2.25,0,0,1-.46.83,2.14,2.14,0,0,1-1.66.88h0a1.12,1.12,0,0,1-.95-.35,2.45,2.45,0,0,1-.29-1.4l0-5.15h-2.94v.83H192c.29,0,.69,0,.81.27a5.22,5.22,0,0,1,.12,1.64v2.33a5,5,0,0,0,.13,1.35,1.92,1.92,0,0,0,.87,1.09,2.68,2.68,0,0,0,1.44.41h0a3.41,3.41,0,0,0,2.74-1.36,2.84,2.84,0,0,0,.31,1.25l.06.1h.28a4.91,4.91,0,0,1,1.79-.28H201v-.83Z"/><path class="cls-2" d="M205.68,89.11h0c-.28,0-.64,0-.75-.25a5.77,5.77,0,0,1-.11-1.6l0-9.57v-.21h-.39l-.1,0a.85.85,0,0,1-.24.09l-.27.07-.89.15a5.58,5.58,0,0,1-.67,0h-.3v.81h.34c.57,0,.72.22.78.38a5.58,5.58,0,0,1,.07,1.13l0,8c0,.55-.1.72-.14.77s-.22.15-.7.15h-.46v.82l4.25,0v-.81Z"/><path class="cls-2" d="M215.94,88.87c-.41,0-.68-.08-.76-.23A7.65,7.65,0,0,1,215.1,87l0-9.38v-.21h-.46a8.72,8.72,0,0,1-2.26.37h-.2v.81h.4c.29,0,.64,0,.75.24a4.88,4.88,0,0,1,.11,1.6v2.37a3.79,3.79,0,0,0-2.32-.81h0a3.52,3.52,0,0,0-2.69,1.17,4.14,4.14,0,0,0-1,2.88,3.93,3.93,0,0,0,1.13,2.74,3.4,3.4,0,0,0,2.45,1.09h0a4,4,0,0,0,2.59-1,4.48,4.48,0,0,0,.11.85l0,.21.21,0a10.21,10.21,0,0,1,2.11-.22l.31,0v-.77h-.35Zm-4.6.13a1.76,1.76,0,0,1-1.54-.8,3.74,3.74,0,0,1-.6-2.13c0-2.06.68-3.06,2.09-3.06h0a3.52,3.52,0,0,1,2.11.88l0,4A2.64,2.64,0,0,1,211.35,89Z"/><path class="cls-2" d="M227.73,82v.83h.2c.57,0,.82.13.82.24a.84.84,0,0,1-.12.35l-1.77,4.29-2-4.29a1,1,0,0,1-.16-.41s0-.14.71-.17h.2V82l-3.84,0v.82h.2a1.36,1.36,0,0,1,.7.17,3,3,0,0,1,.55.93L226,89.78l-.67,1.69A1.18,1.18,0,0,1,225,92a1.9,1.9,0,0,1-.63.39c-.71.35-1.07.76-1.06,1.23a.73.73,0,0,0,.19.54.82.82,0,0,0,.58.2h0a1.22,1.22,0,0,0,1-.51,8,8,0,0,0,.84-1.59l3.29-8a4,4,0,0,1,.64-1.24,1.11,1.11,0,0,1,.74-.27h.2V82Z"/><path class="cls-2" d="M235.76,81.94h0a4,4,0,0,0-4,4.07,3.73,3.73,0,0,0,1.15,2.69,3.94,3.94,0,0,0,2.87,1.13h0a3.93,3.93,0,0,0,2.88-1.15A3.73,3.73,0,0,0,239.8,86a4,4,0,0,0-1.19-2.89A3.91,3.91,0,0,0,235.76,81.94Zm0,7.09a1.81,1.81,0,0,1-1.57-.7,3.79,3.79,0,0,1-.56-2.27,4.64,4.64,0,0,1,.54-2.5,1.78,1.78,0,0,1,1.58-.79h0a1.77,1.77,0,0,1,1.58.78,4.57,4.57,0,0,1,.57,2.5,4,4,0,0,1-.52,2.24,1.8,1.8,0,0,1-1.62.74Z"/><path class="cls-2" d="M250.16,88.71h0c-.29,0-.65,0-.77-.28a6.77,6.77,0,0,1-.1-1.67V81.89h-3v.84h.4c.3,0,.68,0,.8.28a5.08,5.08,0,0,1,.12,1.64v1.48a3.09,3.09,0,0,1-.08,1,2.14,2.14,0,0,1-.45.83,2.18,2.18,0,0,1-1.66.89h0a1.12,1.12,0,0,1-1-.35,2.44,2.44,0,0,1-.29-1.41l0-5.15h-2.94v.83h.33c.3,0,.67,0,.79.27a4.86,4.86,0,0,1,.12,1.65V87a5.23,5.23,0,0,0,.14,1.34,1.86,1.86,0,0,0,.86,1.09,2.67,2.67,0,0,0,1.46.42,3.45,3.45,0,0,0,2.74-1.37,2.92,2.92,0,0,0,.3,1.25l.06.11h.28a5,5,0,0,1,1.79-.28h.39v-.83Z"/><path class="cls-2" d="M260.13,88.91h0c-.28,0-.64,0-.75-.25a5.73,5.73,0,0,1-.1-1.6l0-9.58v-.21h-.39l-.09,0-.25.09-.27.07c-.33.06-.62.11-.88.14a4.47,4.47,0,0,1-.67.06h-.3v.81h.34c.64,0,.75.29.78.38a4.7,4.7,0,0,1,.07,1.13l0,8c0,.56-.1.73-.15.77s-.21.15-.7.16h-.46v.81l4.25,0V88.9Z"/><path class="cls-2" d="M263.41,79.57h0a1.07,1.07,0,0,0,.77-.34,1.09,1.09,0,0,0,.33-.8,1.07,1.07,0,0,0-.34-.8,1.11,1.11,0,0,0-.77-.32,1.06,1.06,0,0,0-.81.34,1.14,1.14,0,0,0-.31.79h0a1.18,1.18,0,0,0,.34.8A1.07,1.07,0,0,0,263.41,79.57Z"/><path class="cls-2" d="M265.27,88.87h0c-.27,0-.62,0-.71-.23a5.22,5.22,0,0,1-.11-1.58l0-5.22h-.49a4.37,4.37,0,0,1-1,.29c-.4.07-.84.13-1.34.19l-.18,0v.81h.44c.6,0,.73.13.75.18a3.82,3.82,0,0,1,.16,1.57V88c0,.57-.1.72-.14.75s-.2.14-.7.14h-.5v.83h4.26v-.83Z"/><path class="cls-2" d="M274.68,88.83h0a1.06,1.06,0,0,1-.7-.36l-.05,0a1.08,1.08,0,0,1-.24-.21q-.17-.21-.39-.45l-2.39-3,.4-.33a2.43,2.43,0,0,1,.38-.34l.22-.21a.23.23,0,0,1,.06-.06H272l0,0a3.53,3.53,0,0,1,1.93-1.2h.2V81.8H271v.82h.19c.47,0,.47.17.47.22s-.16.58-1.7,1.77l-.4.31,0-7.48v-.21h-.38l-.09,0a1.81,1.81,0,0,1-.27.1l-.27.07a8.62,8.62,0,0,1-1.49.2h-.3v.85H267c.53,0,.67.2.72.34a3.33,3.33,0,0,1,.08.87l0,8.21c0,.61-.09.74-.12.78s-.18.18-.7.18h-.48v.83h4v-.83h-.28q-.52,0-.66-.27a6.5,6.5,0,0,1-.09-1.65V86l.12-.1,1.67,2a2.74,2.74,0,0,0,.42.51.54.54,0,0,1,.12.26c0,.08-.21.17-.67.18H271v.83l3.91,0v-.83Z"/><path class="cls-2" d="M282.06,87.46A2.13,2.13,0,0,1,280,88.78h0a1.89,1.89,0,0,1-1.37-.56,4,4,0,0,1-.77-2.75v-.38a.92.92,0,0,1,0-.18l5,0v-.22a2.74,2.74,0,0,0-1-2.08,3.3,3.3,0,0,0-2.28-.81h0A3.35,3.35,0,0,0,277,83a4.34,4.34,0,0,0-1,3,3.65,3.65,0,0,0,1.09,2.57,3.58,3.58,0,0,0,2.68,1.13h0a3.58,3.58,0,0,0,1.95-.55,2.77,2.77,0,0,0,1.16-1.48l.09-.28h-.84Zm-1.13-3.32h-3c.21-1.06.74-1.57,1.63-1.58h0a1.28,1.28,0,0,1,1,.37,1.47,1.47,0,0,1,.36,1Z"/><path class="cls-2" d="M305,83.05a23.92,23.92,0,0,0-2.2-1.06,10.32,10.32,0,0,1-1.74-.88,1.89,1.89,0,0,1-1-1.55,1.54,1.54,0,0,1,.48-1.2,1.91,1.91,0,0,1,1.34-.46h0a2.62,2.62,0,0,1,1.82.71,4,4,0,0,1,1.11,2l0,.16h.77V77.27h-.81v.2a1.47,1.47,0,0,1-.26.72,3.88,3.88,0,0,0-2.74-1.13h0a3.36,3.36,0,0,0-2.36.91,3,3,0,0,0-.93,2.27,3.38,3.38,0,0,0,.62,2,6.3,6.3,0,0,0,2.8,1.87l.8.34c1.51.63,2.28,1.44,2.28,2.39a1.86,1.86,0,0,1-.67,1.51,2.49,2.49,0,0,1-1.72.6h0a2.85,2.85,0,0,1-2.14-.89,5.35,5.35,0,0,1-1.19-2.65l0-.17h-.83v4.24h.83l0-.16a4.41,4.41,0,0,1,.26-.84,4.33,4.33,0,0,0,3.18,1.31h0a4.13,4.13,0,0,0,2.81-1,3.26,3.26,0,0,0,1.11-2.54,3.74,3.74,0,0,0-.71-2.31A3.78,3.78,0,0,0,305,83.05Z"/><path class="cls-2" d="M318.1,85.55A5.47,5.47,0,0,1,316.91,88a3,3,0,0,1-2.16.72h-.92c-.87,0-1.13-.16-1.22-.25s-.27-.49-.28-2.4V83.47h1.11c.88,0,1.16.15,1.25.25s.26.37.27,1.24v.37h.83l0-4.49h-.83v.35c0,.84-.15,1.1-.25,1.19s-.39.23-1.32.24h-1.05l0-4.56h2.17a2.44,2.44,0,0,1,1.69.52,3.78,3.78,0,0,1,.84,1.87l0,.17h.81l-.32-3.37-8.68,0h-.21v.81H309c.76,0,.94.19,1,.27a5.41,5.41,0,0,1,.19,2.08l0,5.82a5.67,5.67,0,0,1-.2,2.18c-.07.11-.29.29-1.13.3h-.44v.81l10,0h.2l.26-4.11h-.79Z"/><path class="cls-2" d="M333.44,88.63a2,2,0,0,1-1.14-.27,12.36,12.36,0,0,1-2-2.08l-2.93-3.56,1.73-2.24a9.76,9.76,0,0,1,1.93-2,2.78,2.78,0,0,1,1.48-.44h.2v-.8h-4.82v.82h.37c.53,0,1.16.08,1.16.44a1.31,1.31,0,0,1-.42.77l-2.23,2.8-2.41-2.91a1.36,1.36,0,0,1-.4-.76.19.19,0,0,1,.07-.16c.06-.07.23-.17.71-.17h.37v-.82l-5.45,0v.82h.21a1.84,1.84,0,0,1,1.12.34,9,9,0,0,1,.91,1,4.6,4.6,0,0,1,.31.35c.09.12.19.22.26.3l2.9,3.52L323,86.78a5.07,5.07,0,0,1-1.48,1.41,3.34,3.34,0,0,1-1.57.49h-.19v.8l5,0v-.8h-.2c-1.16,0-1.16-.52-1.16-.7s0-.34.56-1l.44-.59,1.76-2.09,2.29,2.92c.46.59.53.86.53,1s0,.22-.25.32a2.48,2.48,0,0,1-1,.16h-.32v.81l6.29,0v-.81Z"/><path class="cls-2" d="M342.25,78h.31a1.26,1.26,0,0,1,.9.25.71.71,0,0,1,.18.52,1.43,1.43,0,0,1-.23.77L341,83.61l-2.68-4.37a2.19,2.19,0,0,1-.42-.87c0-.33.56-.4,1-.41h.3v-.81l-5.22,0V78h.2a1.58,1.58,0,0,1,.85.2,4.06,4.06,0,0,1,.76,1l3.45,5.57v1.41a5.55,5.55,0,0,1-.2,2.19c-.06.11-.28.29-1.1.29h-.39v.81l5.47,0v-.81h-.41c-.78,0-1-.18-1.07-.28a6.27,6.27,0,0,1-.2-2.19V84.61L344,80.2a8.62,8.62,0,0,1,1.19-1.67,2.35,2.35,0,0,1,1.22-.6l.17,0v-.78l-4.29,0Z"/><path class="cls-2" d="M361.18,86.92h0a1.29,1.29,0,0,0-.9.35,1.24,1.24,0,0,0,0,1.77,1.26,1.26,0,0,0,1.77,0,1.22,1.22,0,0,0,0-1.77A1.26,1.26,0,0,0,361.18,86.92Z"/><path class="cls-2" d="M363.74,77.21a4.22,4.22,0,0,0-2.47-.73,5.34,5.34,0,0,0-2.33.66l-.08,0-.76,2.32.89.24.24-.45a4.78,4.78,0,0,1,.6-1c.08-.08.33-.21,1-.22a2.1,2.1,0,0,1,.76.14,1.83,1.83,0,0,1,.62.37,1.69,1.69,0,0,1,.4.55,1.75,1.75,0,0,1,.14.7,2.54,2.54,0,0,1-.65,1.52l-.67.76-.66.78a2.79,2.79,0,0,0-.76,1.67,1.68,1.68,0,0,0,.9,1.49l.11.07.69-.47-.16-.18a1.18,1.18,0,0,1-.35-.73c0-.25.15-.69.88-1.39.3-.27.59-.55.88-.83l.88-.84a3.4,3.4,0,0,0,1-2.22A2.7,2.7,0,0,0,363.74,77.21Z"/><path class="cls-2" d="M291.79,77.06h-.2a1.39,1.39,0,0,0-.84.3,2.12,2.12,0,0,0-.71,1,1.88,1.88,0,0,0-.11.65,1.78,1.78,0,0,0,.3,1,.91.91,0,0,0,.8.45,1.14,1.14,0,0,0,.52-.13.71.71,0,0,0,.44-.68.9.9,0,0,0-.28-.65.87.87,0,0,0-.67-.29,1.55,1.55,0,0,0-.46.21s0,0,0,0a2.48,2.48,0,0,1,.1-.42,1.85,1.85,0,0,1,.61-.77,2.43,2.43,0,0,1,.77-.5l.41-.15h-.18A3.85,3.85,0,0,1,291.79,77.06Z"/><path class="cls-2" d="M295.19,77.05l-.2,0a1.41,1.41,0,0,0-.84.31,2.07,2.07,0,0,0-.71,1,1.88,1.88,0,0,0-.11.65,1.81,1.81,0,0,0,.3,1,.92.92,0,0,0,.8.45,1.29,1.29,0,0,0,.52-.13.7.7,0,0,0,.44-.68.9.9,0,0,0-.28-.65.87.87,0,0,0-.67-.3,2,2,0,0,0-.46.22s0,0,0,0a2.76,2.76,0,0,1,.1-.41,1.74,1.74,0,0,1,.61-.77,2.54,2.54,0,0,1,.77-.5l.41-.15h-.18Z"/><path class="cls-2" d="M350.48,76.71a1.14,1.14,0,0,0-.52.13.71.71,0,0,0-.45.68.94.94,0,0,0,.28.65.9.9,0,0,0,.68.3,2.2,2.2,0,0,0,.46-.22s0,0,0,0a3.2,3.2,0,0,1-.11.42,1.76,1.76,0,0,1-.6.77,2.54,2.54,0,0,1-.77.5l-.41.15h.18a3.7,3.7,0,0,1,.48,0h.2a1.44,1.44,0,0,0,.84-.3,2.12,2.12,0,0,0,.71-1,1.88,1.88,0,0,0,.11-.65,2,2,0,0,0-.3-1A.92.92,0,0,0,350.48,76.71Z"/><path class="cls-2" d="M353.63,76.69a1.33,1.33,0,0,0-.52.13.72.72,0,0,0-.44.68.9.9,0,0,0,.28.65.87.87,0,0,0,.67.3,2.22,2.22,0,0,0,.47-.22s0,0,0,0a2.76,2.76,0,0,1-.1.41,1.79,1.79,0,0,1-.61.77,2.68,2.68,0,0,1-.77.51l-.41.14h.18l.49,0,.19,0a1.41,1.41,0,0,0,.84-.31,2.07,2.07,0,0,0,.71-1,1.66,1.66,0,0,0,.11-.64,1.82,1.82,0,0,0-.3-1A.91.91,0,0,0,353.63,76.69Z"/><path class="cls-2" d="M174.12,43c-.5,2.73-1.64,2.74-2,2.74h0a1,1,0,0,1-1-.55,4.8,4.8,0,0,1-.46-2.45l0-13.46a14.94,14.94,0,0,0-.56-4.91c-1.37-3.89-5.13-5.86-11.18-5.86h-.11a16.59,16.59,0,0,0-8.47,2.14c-2.49,1.5-3.75,3.25-3.74,5.22a3,3,0,0,0,.74,2.14,2.84,2.84,0,0,0,2.09.76h0c1.38,0,3.17-.67,3.8-3.84l.14-.8c.09-.6.38-2.43,4.86-2.45,2.19,0,3.71.45,4.49,1.37s1.24,2.79,1.25,5.47v.85l-4.9,2a59.75,59.75,0,0,0-8.36,4.44c-3.42,2.2-5.14,4.72-5.13,7.49A5.93,5.93,0,0,0,147.87,48a8.42,8.42,0,0,0,5.49,1.81h0c2.94,0,6.52-1.44,10.93-4.37a5.87,5.87,0,0,0,6.06,4.3h0c4.11,0,6.41-2.29,6.66-6.58l.05-.89h-2.87Zm-21.2-1.27c0-2.88,2.8-5.51,8.35-7.8l2.69-1.1,0,9c-3.28,2.65-5.84,4-7.62,4S152.93,45.36,152.92,41.68Z"/><path class="cls-2" d="M217.83,0h0a4.37,4.37,0,0,0-3.16,1.33,4.46,4.46,0,0,0-1.3,3.23,4.46,4.46,0,0,0,1.32,3.18,4.27,4.27,0,0,0,3.15,1.35h0A4.18,4.18,0,0,0,221,7.71a4.56,4.56,0,0,0,1.25-3.18,4.51,4.51,0,0,0-1.29-3.22A4.18,4.18,0,0,0,217.83,0Z"/><path class="cls-2" d="M220.37,18.23l-.3.05a22.88,22.88,0,0,1-4,1.12c-1.55.28-3.32.53-5.27.72l-.76.07,0,3.17h1.76c2.3,0,2.84.52,3,.75s.56,1.69.57,6.16l.1,25.43a13.58,13.58,0,0,1-.06,1.68A10.38,10.38,0,0,1,214,61.84a4.61,4.61,0,0,1-4,1.94h0a2.61,2.61,0,0,1-2.7-1.82l-.36-.86a3.37,3.37,0,0,0-3.2-2.35h0c-1.89,0-3,1.17-3,3.2a4.32,4.32,0,0,0,2.53,3.78,11.8,11.8,0,0,0,5.86,1.3h.09a13,13,0,0,0,8.8-3.16A10.58,10.58,0,0,0,221,59.25a17.12,17.12,0,0,0,1.1-6.07l-.13-35Z"/><path class="cls-2" d="M264.91,9.06h0A4.26,4.26,0,0,0,268,7.69a4.39,4.39,0,0,0,1.34-3.2,4.27,4.27,0,0,0-1.38-3.16,4.28,4.28,0,0,0-3-1.29h0a4.29,4.29,0,0,0-3.24,1.34,4.5,4.5,0,0,0-1.22,3.15,4.5,4.5,0,0,0,1.32,3.18A4.28,4.28,0,0,0,264.91,9.06Z"/><path class="cls-2" d="M272.26,46c-1.12,0-2.5-.14-2.9-.89-.1-.18-.4-1.16-.42-6.3l-.08-20.78h-1.62l-.33.07a17.7,17.7,0,0,1-4,1.13q-2.32.41-5.3.76l-.74.1v3.22h1.77c2.43,0,2.88.53,3,.71s.6,1.52.62,6.27l.05,12.24c0,2.25-.42,2.84-.56,3s-.78.56-2.79.56h-2V49.4l16.92-.06V46Z"/><path class="cls-2" d="M325.91,42.39C324.67,44.11,323.37,45,322,45h0a2.78,2.78,0,0,1-2.74-1.4c-.41-.75-.9-2.49-.92-6.43l-.06-16,9.05,0,0-3.31-9,0,0-9.19h-2.68l-.12.7c-.91,5.55-3.34,8.33-7.44,8.52l-.8,0v3.28l4.34,0,.06,14.9c0,4.54.38,7.49,1.13,9.07,1.39,2.65,3.81,4,7.2,4h0a8.73,8.73,0,0,0,8.35-5.27l.33-.67-2.29-1.47Z"/><path class="cls-2" d="M389.07,22.26a15.56,15.56,0,0,0-11.37-4.62h-.07a15.78,15.78,0,0,0-15.94,16.21,14.84,14.84,0,0,0,4.56,10.7A15.8,15.8,0,0,0,377.68,49h.07a15.62,15.62,0,0,0,11.48-4.57,14.75,14.75,0,0,0,4.55-10.72A15.67,15.67,0,0,0,389.07,22.26ZM377.69,45.84c-2.83,0-4.88-.92-6.28-2.8s-2.19-5-2.21-9c0-4.43.71-7.78,2.16-10A7,7,0,0,1,377.65,21h0A7.08,7.08,0,0,1,384,24c1.48,2.16,2.23,5.5,2.25,9.94,0,3.9-.68,6.9-2.07,8.94s-3.44,2.92-6.45,2.93Z"/></g></g></svg>