<svg xmlns="http://www.w3.org/2000/svg" viewBox="0 0 195.78 187.08"><defs><style>.cls-1,.cls-2{fill:#fff;}.cls-1{fill-rule:evenodd;}</style></defs><g id="レイヤー_2" data-name="レイヤー 2"><g id="レイヤー_1-2" data-name="レイヤー 1"><path class="cls-1" d="M85.08,84.6h.11c-.12.36-1.26,1-1.65,1.76v.29a2,2,0,0,0,1.37.22l0,.06c.09,1.07-.32,2.33,1.08,2.51L86.67,88a3.31,3.31,0,0,1,4-1.43l.06.12c-.67.28-1.27.44-1.31,1.36l1.48.17,1,.52.12.28c-.49.54-.94.52-1,1.59,2.6-.22,2,.81,2.84,2.51.12.16,0,.09.23.16.32-1.54.79-3.21,2.73-2.61H97a1.14,1.14,0,0,0-.85-1.48l-.06-.28a3.76,3.76,0,0,1,2.56-.8l.06-.11a1.24,1.24,0,0,0-1.19-1.2.41.41,0,0,0-.07-.11c.22-.23.43-.2.8-.29a3.2,3.2,0,0,1,3.7,3l.12.06c1.27-.1,1.26-1.28,1.08-2.39V87l1.36-.23.12-.17c-.13-1.24-1.13-1.16-1.65-1.93,1.22-.78,2.42-1,3.12-2.28,1.12-2-.22-3.86-2.27-3.64l-.12.17c1.71,4-2.53,3.35-5,4.33a6.48,6.48,0,0,0-3.53,3.41l-.22.06c.29-2.8,3-4.66.74-7.69A4.88,4.88,0,0,0,94,77.38c-1.39,1-3.11,2.76-2.39,5.34.38,1.37,1.33,2.41,1.54,3.93v.06l-.11.05a7.64,7.64,0,0,0-3.36-3.41C88,82.53,83.49,83,84.05,80c.12-.39.23-.8.35-1.19-1.69-.61-3.08,1-2.62,2.84C82.19,83.36,83.67,83.85,85.08,84.6Z"/><path class="cls-1" d="M98.86,2.61c-1.27,2.9.83,5.79,3.71,8l-.16.21a7.51,7.51,0,0,0-3.8,1.68c0,.06,0,.12,0,.19.52,1,1.54,1,2.36,1.49-.93,2-1.85,3,.16,4.56.64-.26.94-1.09,1.65-1.67,2.36-2,5.14-2.49,8-.4l.1.3c-1,.32-2.09.21-3.14.83-2.41,1.39-2.83,4.5-1.1,6,.85-.39,1.56-1.18,2.46-1.12,3,.16,3.74,4,2.14,6.09l.42.33c2.15-3,4.3-11.13,8.5-9.56l.41-.23c.57-3-3.37-5.68-5.71-2.55h-.13C114,16,114,15,113.54,14.1l-2.24-2.77C108.15,8,99.22,6.83,104.6,1.21c0-.1-.07-.2-.1-.3C103.34-1,99.82.41,98.86,2.61Z"/><path class="cls-1" d="M128.12,80.55h-.19a2.19,2.19,0,0,1-1.15,1c-1.67-.08-1.86-2-2.92-2.73l-1-.52h-.09v-.05c1.42-.28,2.84-.75,2.87-2.4-.39-.16-.92.19-1.48.1a18.36,18.36,0,0,0-3.21-.67c.66-.68,1.58-.72,1.82-1.87.55-2.56-2.11-4.23-3.63-2.49v.2c.78.16,1.64,0,2,.81-.16.19-.54.27-.76.38v.19a.94.94,0,0,1,.76.53c-.53,1.3-1.93,1.25-3.39,1a1.8,1.8,0,0,1,0-.19,1.67,1.67,0,0,0,.19-1.87c-.69.17-1.21.63-2,.77-1.27.21-2.22-.77-3.59-.58a3,3,0,0,0-2.2,4.69,5.83,5.83,0,0,0,1.43,1.58c.68.48,1.56.64,1.82,1.53l.15.1c.16-.11.31-.23.48-.34a1.87,1.87,0,0,0-.29-1.43,7.39,7.39,0,0,0,1.77-.15,1.7,1.7,0,0,0,.28-3h0c-1.13,2.24-4.88,1-4.45-1.72,2.5-1.89,6.37,1.33,6.22,3.87.58.28.83-.25,1.15-.52,1,1.11.88,3.83-.48,4.45a.69.69,0,0,1-.72-.44h-.19a1.88,1.88,0,0,0,2.25,2.45c1.61-.55,1.37-2.23,1.53-4.12l.1,0a4.65,4.65,0,0,1,.19,4.07,1,1,0,0,0,0,.1c.58.11.77-.15,1.11-.39a1.35,1.35,0,0,1-.43,1c-1.07,1.42-2.77.38-3.21.77-.22,1.09.59,1.17,1.15,1.63-.14.25-.29.5-.43.76,0,.09,0,.19,0,.29l1,.1c-.74,1-2.25.93-3.49.66H117c-.19.71.33.9.63,1.24v.06c-.91.13-1.42-.76-2.11-.63a2,2,0,0,0,.19,1.2l-.09,0c-1-.38-1.17-1-1-2.25l-.19-.1c-.38-.15-.71.12-1,.24l-.13-.09c0-1.27.55-1.87,1.82-1.82,0,0,0-.1,0-.14-.22-.64-.59-.81-1.29-1l0-.1a1.75,1.75,0,0,1,2.64,1.2L116,87a2.36,2.36,0,0,0,1.25-.28c.81-2-1.38-4.15-3.87-3.44a3.52,3.52,0,0,0-2.4,2.67c-.79,3.2,1.87,5.83,4.16,6.28,1.54.29,2.49-.45,3.4-.77h0a2.84,2.84,0,0,1,.33,1.29,4.13,4.13,0,0,0,1.16,1,1.68,1.68,0,0,0,2.52-1.34.36.36,0,0,0,0-.09,2.94,2.94,0,0,1-1.29-.24c-1.21-.79-.6-3.21-.15-4.31h.06c.43.65-.06,1.87.47,2.4.72.72,2.8,1.37,3-.29-.45-.43-1.26-.29-1.53-.91-.67-1.46.65-2.85,1-4a4.84,4.84,0,0,0-.81-3.73c.86.36,2.56,3.25,2.2,4.79a14.3,14.3,0,0,0-.33,1.43c1.75.56,2.73-1.16,2.14-3a8.26,8.26,0,0,1-.47-1.1c.56-.29.94.1,1.2.53h.19c.05-.1.09-.19.15-.3-.06-.37-.19-.36-.25-.71A1.58,1.58,0,0,0,128.12,80.55Z"/><path class="cls-1" d="M131.52,62.38v-.07c4.24.92,7.16-1.61,10.91.07.84-.52.06-2.09-.25-2.63a6.68,6.68,0,0,0-5.53-3.37v-.07L137,56c3-.12,4.58-3,6.24-4.73.73-.76,2.17-2,3.68-1.25,1,.47,1.29,1.54,2,2.23l.2,0c2.1-2.3,1.6-2.79.25-5.12.21-.66.77-1.26.67-2.14h-.07c-1.12.37-1.5,1.53-3.31,1l-.06-.15c.42-.78.83-1.56,1.24-2.35,1.53-3.9.64-7.33-4-7.07l0,.33c1.85,4.76-2.39,11.58-5.65,13.29,1.17-1.4,3.28-3.62,3.05-6.45-.36-4.39-5.28-11.52,2-12.3l0-.41c-1.2-3.94-5.91-2.51-7.24.32a8.21,8.21,0,0,0-.67,3l-.14,1.56-.19-.15c-.24-2.67-2.1-7.77.8-9.74.66-.45,3.11-.45,3.27-.6.93-1.86-2.09-4.14-4.34-3.75-2.52.45-3.71,2.46-4.48,5l-.21,0a17.79,17.79,0,0,0-3.73-2c-6.14-2.11-11.15,2.66-12.8,6.68-1.11,2.7-1.42,6.39-.23,8.77,2.52,5,9.36,5,12.48.83,1.48-2,1.08-5.72-2.31-4.94v.2a3.14,3.14,0,0,1-1.75,5.06c-1.24.26-3.26-.11-3.69-.94,0-.05,0-.09.07-.13l1.09.16c.06-.15.12-.31.17-.47l1.16.11c.37-.62.86-.9.91-1.77l-.33,0c-2.74.62-3.72-2.79-3.23-4.61l.27,0a2.23,2.23,0,0,0,2.48.63l0-.41c-.84-1.84,1.08-4.22,2.79-4.35l.4.17-.15.19c-.35,0-.27,0-.43.17a2.26,2.26,0,0,0-.08,2.47l.27,0a5.2,5.2,0,0,1,4.58-1.31v.07l-.17.26A2.15,2.15,0,0,0,126,33.91l1.75-.47c2.49-.21,5.47,1.28,6.15,2.68a8.86,8.86,0,0,0-2.4-.08c-.38.76.32,1.62.36,2.16-1.85.4-2.46,2.07-2.49,4.24,4.3-1.79,7.08.2,7.78,4.18h-.07v-.14C136.18,45.6,135.74,45,134,45a6.39,6.39,0,0,1,1.32,2.17c.45,2.45-1.29,6.55-2.3,7.35h-.06v-.13c.15-.88.29-1.76.44-2.64a7.13,7.13,0,0,0-1.83-6.41c-2.93-2.4-7.91.89-6.37,4.51a.91.91,0,0,0,.22-.11,1.69,1.69,0,0,1,1.87-1l1.14,1.06a8.25,8.25,0,0,1-.3,8.07c-.34.47-.37,1-1,1.14a1.83,1.83,0,0,0-1.84-1.74l-.35.11c.31,4.17-4.84,8.09-8.11,8.68-2,.35-5.47.43-6.27-1.25-1.9-4,4.89-7,8.57-5.34,1.21.55.9,1.42,1.5,2.47,2.39-.85,2.84-4.47,1-6.09-1.59-1.36-2.64-.81-4.63-1.24l0-.33c1-1.29,1.26-2.83-.28-3.73l-.21,0c-.35,2-2.63,2.36-4,3.15a11.27,11.27,0,0,0-4.46,4.68,7.34,7.34,0,0,0-.56,3.24c.53,7.41,6.07,6,12.14,5.46,2.52-.23,3.56,1.81,5.37,2.12a3.33,3.33,0,0,0-.32-4.14l.09-.33a18.14,18.14,0,0,0,2.64-.39c2.65-.26,3.93,1.41,4.84,2.69a1.52,1.52,0,0,1-.22.88c-.4.51-1.09.42-1.64.74a1.74,1.74,0,0,1,.05.22,7.65,7.65,0,0,0,1.65.69,2.73,2.73,0,0,1,0,.41c-1.12,1.46-2.66,1.08-4.64,1.38v.06c.56,1.9,4.33,2.67,6.1,1.57a5.16,5.16,0,0,0,2-3C136.77,66,134.67,63.33,131.52,62.38Z"/><path class="cls-1" d="M84,.91c0,.1-.07.2-.1.3,5.37,5.62-3.56,6.76-6.7,10.12L74.93,14.1c-.47.86-.46,1.9-1.16,2.71h-.12c-2.35-3.13-6.29-.48-5.71,2.55l.41.23c4.2-1.57,6.34,6.55,8.49,9.56l.42-.33c-1.59-2-.87-5.93,2.14-6.09.91-.06,1.61.73,2.47,1.12,1.72-1.54,1.3-4.65-1.1-6-1.06-.62-2.1-.51-3.14-.83,0-.11.07-.21.1-.3,2.87-2.09,5.65-1.55,8,.4.7.58,1,1.41,1.64,1.67,2-1.6,1.09-2.54.17-4.56.82-.51,1.83-.49,2.35-1.49,0-.07,0-.13,0-.19a7.44,7.44,0,0,0-3.79-1.68l-.17-.21c2.89-2.21,5-5.1,3.72-8C88.65.41,85.13-1,84,.91Z"/><path class="cls-1" d="M60.4,82.85c-.06.35-.19.34-.24.71l.15.3h.19c.26-.43.64-.82,1.19-.53a6.26,6.26,0,0,1-.48,1.1c-.58,1.85.4,3.57,2.16,3-.07-.49-.24-1-.34-1.43-.35-1.54,1.35-4.43,2.21-4.79A4.84,4.84,0,0,0,64.42,85c.31,1.13,1.62,2.52,1,4-.28.62-1.08.48-1.53.91.21,1.66,2.3,1,3,.29.53-.53,0-1.75.48-2.4h0c.46,1.1,1.06,3.52-.14,4.31a3,3,0,0,1-1.3.24.41.41,0,0,1,0,.09,1.7,1.7,0,0,0,2.54,1.34,4.23,4.23,0,0,0,1.15-1,2.86,2.86,0,0,1,.34-1.29h0c.91.32,1.86,1.06,3.41.77,2.29-.45,4.94-3.08,4.16-6.28a3.53,3.53,0,0,0-2.4-2.67c-2.49-.71-4.68,1.43-3.87,3.44a2.3,2.3,0,0,0,1.24.28l-.43-1.14a1.74,1.74,0,0,1,2.63-1.2.42.42,0,0,0,0,.1c-.71.15-1.08.32-1.29,1a1,1,0,0,0,0,.14c1.27,0,1.78.55,1.82,1.82l-.15.09c-.26-.12-.58-.39-1-.24l-.2.1c.12,1.21-.09,1.87-1,2.25l-.09,0a1.92,1.92,0,0,0,.19-1.2c-.69-.13-1.2.76-2.11.63v-.06c.3-.34.83-.53.62-1.24h0c-1.25.27-2.76.33-3.5-.66l1-.1a2.5,2.5,0,0,1,0-.29l-.43-.76c.55-.46,1.36-.54,1.15-1.63-.44-.39-2.14.65-3.21-.77a1.31,1.31,0,0,1-.43-1c.34.24.52.5,1.1.39a.93.93,0,0,1,0-.1A4.59,4.59,0,0,1,67.44,79l.09,0c.17,1.89-.08,3.57,1.53,4.12a1.88,1.88,0,0,0,2.25-2.45h-.19a.68.68,0,0,1-.72.44c-1.36-.62-1.53-3.34-.47-4.45.31.27.56.8,1.14.52-.15-2.54,3.72-5.76,6.23-3.87.43,2.71-3.32,4-4.46,1.72h0a1.7,1.7,0,0,0,.29,3,7.3,7.3,0,0,0,1.76.15,1.87,1.87,0,0,0-.28,1.43l.48.34a1.7,1.7,0,0,1,.14-.1c.27-.89,1.15-1,1.82-1.53a5.68,5.68,0,0,0,1.43-1.58,3,3,0,0,0-2.19-4.69c-1.38-.19-2.32.79-3.6.58-.79-.14-1.32-.6-2-.77a1.67,1.67,0,0,0,.2,1.87,1.05,1.05,0,0,0,0,.19c-1.46.29-2.86.34-3.4-1a1,1,0,0,1,.77-.53v-.19c-.22-.11-.61-.19-.77-.38.31-.76,1.18-.65,2-.81v-.2c-1.53-1.74-4.18-.07-3.64,2.49.25,1.15,1.16,1.19,1.82,1.87a18.36,18.36,0,0,0-3.21.67c-.56.09-1.09-.26-1.48-.1,0,1.65,1.45,2.12,2.87,2.4v.05h-.09l-1,.52c-1.06.73-1.25,2.65-2.92,2.73a2.13,2.13,0,0,1-1.14-1h-.2A1.59,1.59,0,0,0,60.4,82.85Z"/><path class="cls-1" d="M53,70a5.26,5.26,0,0,0,2,3c1.77,1.1,5.54.33,6.1-1.57v-.06c-2-.3-3.52.08-4.64-1.38l0-.41a7.45,7.45,0,0,0,1.65-.69,1.74,1.74,0,0,0,0-.22c-.54-.32-1.25-.23-1.64-.74a1.6,1.6,0,0,1-.22-.88c.91-1.28,2.2-3,4.84-2.69a18.14,18.14,0,0,0,2.64.39c0,.11.06.22.1.33a3.32,3.32,0,0,0-.32,4.14c1.81-.31,2.83-2.35,5.37-2.12,6.07.56,11.61,2,12.13-5.46a7.2,7.2,0,0,0-.56-3.24,11.2,11.2,0,0,0-4.46-4.68c-1.41-.79-3.69-1.12-4-3.15l-.21,0c-1.54.9-1.33,2.44-.28,3.73l0,.33c-2,.43-3-.12-4.62,1.24-1.89,1.62-1.44,5.24,1,6.09.6-1.05.28-1.92,1.49-2.47,3.68-1.66,10.48,1.33,8.57,5.34-.8,1.68-4.27,1.6-6.27,1.25-3.27-.59-8.41-4.51-8.11-8.68l-.35-.11A1.82,1.82,0,0,0,61.39,59c-.63-.14-.65-.67-1-1.14a8.28,8.28,0,0,1-.3-8.07l1.14-1.06a1.68,1.68,0,0,1,1.87,1,1.5,1.5,0,0,0,.22.11C64.86,46.25,59.89,43,57,45.36a7.13,7.13,0,0,0-1.84,6.41c.14.88.29,1.76.44,2.64v.13H55.5c-1-.8-2.75-4.9-2.29-7.35A6.21,6.21,0,0,1,54.52,45c-1.79-.06-2.22.57-3.16,1.45v.14H51.3c.71-4,3.48-6,7.79-4.18,0-2.17-.64-3.84-2.5-4.24,0-.54.74-1.4.36-2.16a8.79,8.79,0,0,0-2.39.08c.68-1.4,3.66-2.89,6.14-2.68l1.76.47a2.15,2.15,0,0,0-1.87-2.51c-.06-.09-.11-.18-.17-.26v-.07c1.54-.54,3.84.49,4.58,1.31l.27,0a2.28,2.28,0,0,0-.08-2.47c-.17-.2-.09-.16-.43-.17l-.16-.19.4-.17c1.71.13,3.62,2.51,2.79,4.35l0,.41a2.23,2.23,0,0,0,2.48-.63l.28,0c.49,1.82-.5,5.23-3.23,4.61l-.34,0c0,.87.55,1.15.91,1.77l1.16-.11c.06.16.12.32.17.47l1.09-.16.08.13c-.44.83-2.45,1.2-3.69.94A3.13,3.13,0,0,1,65,36.08l0-.2c-3.39-.78-3.79,2.93-2.31,4.94C65.77,45,72.62,45,75.13,40c1.19-2.38.88-6.07-.22-8.77-1.66-4-6.67-8.79-12.81-6.68a17.79,17.79,0,0,0-3.73,2l-.2,0c-.77-2.57-2-4.58-4.49-5-2.25-.39-5.28,1.89-4.34,3.75.16.15,2.62.15,3.28.6,2.9,2,1,7.07.79,9.74l-.19.15-.14-1.56a8.21,8.21,0,0,0-.67-3c-1.33-2.83-6-4.26-7.23-.32l0,.41c7.32.78,2.4,7.91,2.05,12.3-.23,2.83,1.87,5.05,3,6.45-3.26-1.71-7.5-8.53-5.64-13.29l0-.33c-4.61-.26-5.5,3.17-4,7.07l1.24,2.35a.47.47,0,0,1-.06.15c-1.81.52-2.19-.64-3.31-1h-.07c-.1.88.46,1.48.67,2.14-1.35,2.33-1.85,2.82.25,5.12l.21,0c.7-.69,1-1.76,2-2.23,1.51-.72,2.95.49,3.68,1.25C46.93,53,48.54,55.88,51.52,56l.3.31v.07a6.7,6.7,0,0,0-5.54,3.37c-.3.54-1.08,2.11-.24,2.63,3.74-1.68,6.67.85,10.89-.07v.07C53.8,63.33,51.71,66,53,70Z"/><path class="cls-1" d="M80.2,39.19a13.89,13.89,0,0,0,7.27,12.2c-.1,1.83-1.19,22.09-1.19,22.09h15.61s-1.1-20.26-1.2-22.08A13.88,13.88,0,1,0,80.2,39.19ZM90.59,50.55l.06-1-1-.43a10.82,10.82,0,1,1,8.81,0l-1,.43s1,18.15,1.13,20.91H89.52C89.67,67.65,90.59,50.55,90.59,50.55Z"/><path class="cls-2" d="M25.26,174v.64h.17a.85.85,0,0,1,.61.19.74.74,0,0,1,.18.55,2.55,2.55,0,0,1-.1.69l-1.42,5.06L22.06,174h-.63l-2.2,6.88-1.76-5.24a2.06,2.06,0,0,1-.12-.57c0-.18.06-.24.11-.27a1.8,1.8,0,0,1,.64-.14.23.23,0,0,0,.17-.05l.06,0V174H14.51v.62l.25,0a.83.83,0,0,1,.63.22,2.47,2.47,0,0,1,.43.9l2.48,7.94,0,.12h.55l2.35-7.36,2.7,7.23,0,.11h.55l2.05-7.13a10.83,10.83,0,0,1,.61-1.67,1,1,0,0,1,.78-.42h.15V174Z"/><path class="cls-2" d="M32.13,177.42h0a3.06,3.06,0,0,0-2.26.93,3.12,3.12,0,0,0-.9,2.28,3,3,0,0,0,.91,2.12,3.1,3.1,0,0,0,2.26.88h0a3.07,3.07,0,0,0,2.27-.9,2.92,2.92,0,0,0,.9-2.12,3.12,3.12,0,0,0-.93-2.28A3.07,3.07,0,0,0,32.13,177.42Zm0,5.59a1.42,1.42,0,0,1-1.24-.56,3,3,0,0,1-.44-1.78,3.61,3.61,0,0,1,.43-2,1.41,1.41,0,0,1,1.25-.62h0a1.4,1.4,0,0,1,1.25.61,3.57,3.57,0,0,1,.44,2,3,3,0,0,1-.41,1.77,1.4,1.4,0,0,1-1.28.59Z"/><path class="cls-2" d="M43.49,182.75h0q-.49,0-.6-.21a4.37,4.37,0,0,1-.08-1.33l0-3.83H40.41V178h.31c.24,0,.53,0,.63.22a4,4,0,0,1,.09,1.29v1.17a2.39,2.39,0,0,1-.07.77,1.55,1.55,0,0,1-.35.65,1.7,1.7,0,0,1-1.31.7h0a.89.89,0,0,1-.75-.28,1.89,1.89,0,0,1-.23-1.1v-4.07H36.39v.65h.25c.22,0,.54,0,.63.22a3.88,3.88,0,0,1,.1,1.3v1.83a4.25,4.25,0,0,0,.11,1.06,1.55,1.55,0,0,0,.68.87,2.18,2.18,0,0,0,1.14.32h0a2.66,2.66,0,0,0,2.16-1.08,2.27,2.27,0,0,0,.24,1l.05.08H42a3.87,3.87,0,0,1,1.41-.22h.31v-.66Z"/><path class="cls-2" d="M47.42,182.92h0c-.22,0-.5,0-.59-.19a4.25,4.25,0,0,1-.08-1.26l0-7.56v-.16H46.4l-.07,0-.19.07-.22,0-.7.12a3.4,3.4,0,0,1-.53,0h-.23v.64h.27c.45,0,.57.17.62.3a4.83,4.83,0,0,1,0,.89l0,6.33c0,.43-.08.57-.11.6s-.17.12-.55.12h-.37v.65l3.35,0v-.64Z"/><path class="cls-2" d="M55.52,182.74c-.32,0-.53-.07-.6-.18a6.5,6.5,0,0,1-.07-1.28l0-7.4v-.16h-.37a6.94,6.94,0,0,1-1.78.29h-.16v.63h.32c.22,0,.5,0,.59.2a4.29,4.29,0,0,1,.09,1.26V178a3,3,0,0,0-1.83-.64h0a2.82,2.82,0,0,0-2.12.93,3.29,3.29,0,0,0-.83,2.27,3.07,3.07,0,0,0,.89,2.16,2.66,2.66,0,0,0,1.93.86h0a3.14,3.14,0,0,0,2-.81,3.39,3.39,0,0,0,.09.67l0,.17.17,0a7.57,7.57,0,0,1,1.66-.17l.24,0v-.6h-.27Zm-3.63.1a1.38,1.38,0,0,1-1.21-.64,2.83,2.83,0,0,1-.47-1.68c0-1.62.53-2.4,1.64-2.41h0a2.8,2.8,0,0,1,1.67.7V182a2.08,2.08,0,0,1-1.64.89Z"/><path class="cls-2" d="M64.82,177.29v.65H65c.44,0,.64.1.64.18a.68.68,0,0,1-.09.28l-1.4,3.39-1.59-3.39a1.12,1.12,0,0,1-.13-.32s0-.11.56-.13h.16v-.65h-3V178h.16a1,1,0,0,1,.55.12,2.37,2.37,0,0,1,.44.74l2.19,4.63-.53,1.33c-.13.3-.21.39-.27.43a1.43,1.43,0,0,1-.5.3c-.55.28-.84.61-.83,1a.59.59,0,0,0,.15.43.61.61,0,0,0,.46.16h0a1,1,0,0,0,.78-.4,5.87,5.87,0,0,0,.67-1.26L66,179.13a3.39,3.39,0,0,1,.51-1,.91.91,0,0,1,.58-.21h.16v-.65Z"/><path class="cls-2" d="M71.15,177.27h0a3.13,3.13,0,0,0-2.26.93,3.06,3.06,0,0,0-.9,2.28,2.91,2.91,0,0,0,.9,2.12,3.11,3.11,0,0,0,2.26.89h0a3.1,3.1,0,0,0,2.27-.91,2.88,2.88,0,0,0,.9-2.12,3.14,3.14,0,0,0-3.18-3.19Zm0,5.59a1.46,1.46,0,0,1-1.25-.55,3.08,3.08,0,0,1-.44-1.79,3.58,3.58,0,0,1,.43-2,1.42,1.42,0,0,1,1.25-.63h0a1.41,1.41,0,0,1,1.25.62,3.65,3.65,0,0,1,.45,2,3.19,3.19,0,0,1-.41,1.77,1.44,1.44,0,0,1-1.28.58Z"/><path class="cls-2" d="M82.51,182.61h0c-.23,0-.51,0-.6-.22a4.63,4.63,0,0,1-.08-1.32l0-3.84H79.43v.66h.31c.24,0,.54,0,.63.22a4,4,0,0,1,.09,1.29v1.18a2.87,2.87,0,0,1-.06.76,1.82,1.82,0,0,1-.36.66,1.69,1.69,0,0,1-1.31.69h0a.9.9,0,0,1-.75-.27,2,2,0,0,1-.23-1.11v-4.06H75.42v.66h.26c.23,0,.53,0,.63.21a4.66,4.66,0,0,1,.09,1.3v1.84a4,4,0,0,0,.1,1.06,1.48,1.48,0,0,0,.69.86,2,2,0,0,0,1.14.32,2.67,2.67,0,0,0,2.16-1.07,2.3,2.3,0,0,0,.24,1l.05.08H81a4.13,4.13,0,0,1,1.41-.22h.31v-.65Z"/><path class="cls-2" d="M90.37,182.76h0c-.22,0-.51,0-.59-.19a4.37,4.37,0,0,1-.09-1.26l0-7.56v-.16h-.3l-.08,0-.19.07-.21,0-.7.12a3.59,3.59,0,0,1-.53,0H87.4v.64h.27c.5,0,.59.23.61.3a3.17,3.17,0,0,1,0,.89l0,6.32c0,.44-.08.57-.12.61s-.17.12-.55.12h-.36v.64h3.35v-.64Z"/><path class="cls-2" d="M93,175.4h0a.83.83,0,0,0,.6-.27.85.85,0,0,0,.27-.63.84.84,0,0,0-.28-.63.82.82,0,0,0-.6-.25.85.85,0,0,0-.64.26.9.9,0,0,0-.24.63h0a.89.89,0,0,0,.26.63A.85.85,0,0,0,93,175.4Z"/><path class="cls-2" d="M94.42,182.73h0c-.22,0-.49,0-.56-.18a4.19,4.19,0,0,1-.09-1.24v-4.12h-.39a3.89,3.89,0,0,1-.79.23l-1,.15h-.15v.64h.35c.48,0,.57.11.6.14a3.36,3.36,0,0,1,.12,1.24V182c0,.45-.09.57-.11.59s-.16.11-.56.11h-.39v.66h3.36v-.66Z"/><path class="cls-2" d="M101.85,182.7h0a.81.81,0,0,1-.54-.28l0,0a.52.52,0,0,1-.19-.16,4.6,4.6,0,0,0-.31-.35l-1.88-2.33.31-.26a1.53,1.53,0,0,1,.3-.27l.18-.17,0,0h.05l0,0a2.78,2.78,0,0,1,1.52-.95h.16v-.65H98.91v.64h.16c.37,0,.37.14.37.17s-.13.46-1.35,1.4l-.31.25,0-5.9v-.17h-.31l-.07,0a.86.86,0,0,1-.21.07l-.22.06a6.71,6.71,0,0,1-1.17.15h-.23v.67h.27c.41,0,.52.16.56.27a2.61,2.61,0,0,1,.07.68l0,6.48c0,.48-.07.58-.1.62s-.13.13-.55.14h-.38v.65H98.6v-.65h-.22c-.27,0-.45-.07-.52-.21a5,5,0,0,1-.07-1.3v-.78l.09-.08L99.2,182a2,2,0,0,0,.33.4.48.48,0,0,1,.09.21c0,.06-.16.14-.53.14h-.16v.65H102v-.66Z"/><path class="cls-2" d="M107.67,181.62a1.66,1.66,0,0,1-1.63,1h0a1.45,1.45,0,0,1-1.08-.44,3.09,3.09,0,0,1-.61-2.17v-.29a.62.62,0,0,1,0-.15l3.94,0v-.16a2.13,2.13,0,0,0-.77-1.65,2.61,2.61,0,0,0-1.8-.64h0a2.6,2.6,0,0,0-2.06,1,3.43,3.43,0,0,0-.81,2.33,2.85,2.85,0,0,0,.86,2,2.77,2.77,0,0,0,2.11.89h0a2.74,2.74,0,0,0,1.53-.43,2.2,2.2,0,0,0,.92-1.17l.07-.22h-.66Zm-.89-2.62h-2.35c.16-.83.58-1.24,1.28-1.24h0a1,1,0,0,1,.77.29,1.14,1.14,0,0,1,.29.82Z"/><path class="cls-2" d="M125.78,178.15a15.89,15.89,0,0,0-1.73-.84,8.62,8.62,0,0,1-1.37-.7,1.48,1.48,0,0,1-.77-1.22,1.25,1.25,0,0,1,.38-.95,1.49,1.49,0,0,1,1.06-.35h0a2.05,2.05,0,0,1,1.43.55,3.19,3.19,0,0,1,.88,1.6l0,.13h.61v-2.77h-.64v.16a1.18,1.18,0,0,1-.21.57,3,3,0,0,0-2.16-.89h0a2.61,2.61,0,0,0-1.86.72,2.35,2.35,0,0,0-.74,1.78,2.71,2.71,0,0,0,.49,1.55,5,5,0,0,0,2.21,1.48l.63.26c1.19.5,1.8,1.14,1.8,1.89a1.51,1.51,0,0,1-.53,1.19,2,2,0,0,1-1.36.48h0a2.26,2.26,0,0,1-1.69-.71,4.11,4.11,0,0,1-.94-2.09l0-.13h-.66v3.34h.65l0-.13a3.43,3.43,0,0,1,.21-.66,3.43,3.43,0,0,0,2.51,1h0a3.27,3.27,0,0,0,2.21-.77,2.59,2.59,0,0,0,.88-2,3,3,0,0,0-.56-1.83A2.9,2.9,0,0,0,125.78,178.15Z"/><path class="cls-2" d="M136.09,180.12a4.17,4.17,0,0,1-.94,1.91,2.28,2.28,0,0,1-1.7.57h-.72c-.69,0-.9-.12-1-.2s-.21-.38-.21-1.89v-2h.88c.69,0,.91.12,1,.19s.2.29.2,1v.29h.66V176.4h-.66v.28c0,.66-.12.87-.2.94s-.3.18-1,.18h-.82l0-3.59h1.71a2,2,0,0,1,1.34.41,3.1,3.1,0,0,1,.66,1.48l0,.13h.63l-.25-2.66-6.84,0h-.17v.64h.29c.6,0,.74.14.77.21a4.3,4.3,0,0,1,.16,1.64l0,4.59a4.52,4.52,0,0,1-.16,1.72c-.05.09-.23.23-.89.24h-.35v.64l7.9,0h.15l.21-3.24h-.63Z"/><path class="cls-2" d="M148.19,182.54a1.56,1.56,0,0,1-.9-.21,9.43,9.43,0,0,1-1.55-1.64l-2.31-2.81,1.36-1.76a7.45,7.45,0,0,1,1.53-1.58,2.22,2.22,0,0,1,1.17-.35h.15v-.64l-3.8,0v.64h.29c.42,0,.91.06.91.35a1,1,0,0,1-.32.6L143,177.37l-1.9-2.3a1,1,0,0,1-.32-.6.17.17,0,0,1,0-.12c.05,0,.18-.13.56-.13h.29v-.64l-4.3,0v.64h.16a1.44,1.44,0,0,1,.88.27,6.35,6.35,0,0,1,.73.8l.24.28.2.23,2.29,2.79-1.92,2.49a4,4,0,0,1-1.16,1.11,2.67,2.67,0,0,1-1.24.38h-.15v.63h3.93v-.64h-.16c-.91,0-.91-.41-.92-.55s.05-.27.45-.78l.34-.47,1.39-1.65,1.81,2.31a1.69,1.69,0,0,1,.42.75c0,.08,0,.18-.2.26a2,2,0,0,1-.8.12h-.25v.64l5,0v-.64Z"/><path class="cls-2" d="M155.14,174.12h.24a1.05,1.05,0,0,1,.72.2.58.58,0,0,1,.14.41,1.22,1.22,0,0,1-.18.61l-1.93,3.24L152,175.14a2.1,2.1,0,0,1-.33-.69c0-.26.45-.32.83-.32h.23v-.64l-4.12,0v.63h.15a1.12,1.12,0,0,1,.67.16,2.9,2.9,0,0,1,.6.75l2.72,4.4v1.11a4.6,4.6,0,0,1-.16,1.73c-.05.09-.22.23-.87.23h-.31v.64h4.32v-.64h-.32c-.62,0-.79-.15-.84-.23a4.8,4.8,0,0,1-.16-1.72v-1.2l2-3.47a6.84,6.84,0,0,1,.94-1.32,1.78,1.78,0,0,1,1-.47l.13,0v-.61h-3.38Z"/><path class="cls-2" d="M170.07,181.2h0a1,1,0,0,0-.71.27.91.91,0,0,0-.28.72.93.93,0,0,0,.3.68,1,1,0,0,0,.7.28,1,1,0,0,0,.7-.29,1,1,0,0,0,0-1.39A1,1,0,0,0,170.07,181.2Z"/><path class="cls-2" d="M172.09,173.54a3.26,3.26,0,0,0-2-.57,4.14,4.14,0,0,0-1.84.51l-.06,0-.6,1.82.7.2.19-.36a3.22,3.22,0,0,1,.48-.78c.06-.06.26-.17.81-.17a1.54,1.54,0,0,1,.61.11,1.37,1.37,0,0,1,.48.29,1.24,1.24,0,0,1,.32.43,1.38,1.38,0,0,1,.11.55,2,2,0,0,1-.51,1.2l-.53.6-.52.62a2.2,2.2,0,0,0-.6,1.32,1.31,1.31,0,0,0,.71,1.17l.09,0,.54-.37-.13-.14a.88.88,0,0,1-.27-.58c0-.19.12-.54.69-1.09l.69-.66.7-.66a2.66,2.66,0,0,0,.79-1.75A2.14,2.14,0,0,0,172.09,173.54Z"/><path class="cls-2" d="M115.34,173.42h-.16a1.12,1.12,0,0,0-.66.24,1.7,1.7,0,0,0-.56.77,1.37,1.37,0,0,0-.08.51,1.45,1.45,0,0,0,.23.81.72.72,0,0,0,.63.35.91.91,0,0,0,.41-.1.55.55,0,0,0,.35-.53.74.74,0,0,0-.22-.52.7.7,0,0,0-.53-.23,1.54,1.54,0,0,0-.36.17s0,0,0,0a3.2,3.2,0,0,1,.08-.32,1.45,1.45,0,0,1,.48-.61,2.17,2.17,0,0,1,.61-.4l.32-.11h-.52Z"/><path class="cls-2" d="M118,173.41h-.15a1.12,1.12,0,0,0-.67.24,1.7,1.7,0,0,0-.56.77,1.6,1.6,0,0,0-.08.51,1.38,1.38,0,0,0,.24.81.69.69,0,0,0,.62.35.88.88,0,0,0,.41-.1.53.53,0,0,0,.35-.53.74.74,0,0,0-.22-.52.7.7,0,0,0-.53-.23,1.75,1.75,0,0,0-.36.17s0,0,0,0a2.18,2.18,0,0,1,.09-.32,1.33,1.33,0,0,1,.47-.61,2.17,2.17,0,0,1,.61-.4l.32-.11H118Z"/><path class="cls-2" d="M161.63,173.14a1.09,1.09,0,0,0-.41.11.56.56,0,0,0-.35.53.74.74,0,0,0,.22.52.72.72,0,0,0,.53.23,1.57,1.57,0,0,0,.37-.17s0,0,0,0,0,.13-.08.32a1.45,1.45,0,0,1-.48.61,2.14,2.14,0,0,1-.6.4l-.33.11h.68a1.1,1.1,0,0,0,.66-.24,1.7,1.7,0,0,0,.56-.77,1.36,1.36,0,0,0,.09-.51,1.46,1.46,0,0,0-.24-.81A.73.73,0,0,0,161.63,173.14Z"/><path class="cls-2" d="M164.12,173.13a1.07,1.07,0,0,0-.41.1.56.56,0,0,0-.35.54.79.79,0,0,0,.75.75,2,2,0,0,0,.37-.18,0,0,0,0,1,0,0,3,3,0,0,1-.08.33,1.45,1.45,0,0,1-.48.61,2.1,2.1,0,0,1-.61.39l-.32.12h.14l.38,0,.16,0a1.21,1.21,0,0,0,.66-.25,1.67,1.67,0,0,0,.56-.76,1.37,1.37,0,0,0,.08-.51,1.51,1.51,0,0,0-.23-.82A.74.74,0,0,0,164.12,173.13Z"/><path class="cls-2" d="M22.54,146.51c-.4,2.16-1.29,2.17-1.59,2.17h0a.81.81,0,0,1-.77-.43,3.93,3.93,0,0,1-.36-1.94l0-10.62a11.62,11.62,0,0,0-.45-3.87c-1.08-3.06-4-4.62-8.81-4.62h-.09a13.15,13.15,0,0,0-6.68,1.69c-2,1.18-2.95,2.57-2.95,4.12a2.35,2.35,0,0,0,.59,1.68,2.19,2.19,0,0,0,1.64.6H3c1.09,0,2.5-.53,3-3l.12-.64c.07-.47.3-1.91,3.83-1.92,1.73,0,2.93.35,3.54,1.07s1,2.2,1,4.31v.68l-3.87,1.54a47.81,47.81,0,0,0-6.59,3.5c-2.7,1.74-4.06,3.73-4,5.91a4.69,4.69,0,0,0,1.83,3.76,6.64,6.64,0,0,0,4.33,1.43h0c2.31,0,5.14-1.14,8.62-3.44a4.62,4.62,0,0,0,4.77,3.39h0c3.24,0,5.05-1.81,5.25-5.19l0-.7H22.64Zm-16.72-1c0-2.28,2.2-4.35,6.58-6.15l2.12-.88,0,7.13c-2.59,2.09-4.61,3.15-6,3.16S5.83,148.42,5.82,145.52Z"/><path class="cls-2" d="M57,112.64h0a3.43,3.43,0,0,0-2.48,1,3.61,3.61,0,0,0,0,5.06A3.38,3.38,0,0,0,57,119.81h0a3.28,3.28,0,0,0,2.48-1.09,3.69,3.69,0,0,0,0-5A3.32,3.32,0,0,0,57,112.64Z"/><path class="cls-2" d="M59,127l-.23,0a17.77,17.77,0,0,1-3.2.88c-1.22.23-2.62.42-4.15.57l-.6.06v2.5h1.39c1.82,0,2.24.41,2.34.59S55,133,55,136.52l.08,20a10.84,10.84,0,0,1,0,1.33,8.11,8.11,0,0,1-1,3.51A3.64,3.64,0,0,1,50.83,163h0a2.08,2.08,0,0,1-2.13-1.44l-.29-.68A2.64,2.64,0,0,0,45.89,159h0a2.2,2.2,0,0,0-2.33,2.52,3.4,3.4,0,0,0,2,3,9.27,9.27,0,0,0,4.62,1h.07a10.23,10.23,0,0,0,6.94-2.5,8.29,8.29,0,0,0,2.3-3.64,13.55,13.55,0,0,0,.87-4.79L60.24,127Z"/><path class="cls-2" d="M94.14,119.78h0a3.3,3.3,0,0,0,2.4-1.07,3.46,3.46,0,0,0,1.06-2.52,3.38,3.38,0,0,0-1.08-2.5,3.42,3.42,0,0,0-2.39-1h0a3.39,3.39,0,0,0-2.56,1.07,3.6,3.6,0,0,0,.08,5A3.34,3.34,0,0,0,94.14,119.78Z"/><path class="cls-2" d="M99.94,148.94c-.88,0-2-.11-2.29-.71-.07-.14-.32-.9-.33-5l-.06-16.38H96l-.26.05a13.68,13.68,0,0,1-3.16.9c-1.23.21-2.62.41-4.18.6l-.59.07V131h1.4c1.91,0,2.27.42,2.35.56s.47,1.21.49,4.94l0,9.67c0,1.77-.33,2.23-.43,2.33s-.62.44-2.21.44H87.87v2.61l13.35,0v-2.61Z"/><path class="cls-2" d="M142.25,146.08c-1,1.35-2,2-3.05,2h0A2.18,2.18,0,0,1,137,147c-.33-.6-.72-2-.73-5.08l-.05-12.6,7.14,0V126.7l-7.14,0,0-7.25h-2.12L134,120c-.71,4.37-2.63,6.57-5.86,6.72l-.64,0v2.59l3.43,0,0,11.76c0,3.57.3,5.9.89,7.15a5.91,5.91,0,0,0,5.68,3.15h0a6.88,6.88,0,0,0,6.59-4.16l.26-.53-1.81-1.16Z"/><path class="cls-2" d="M192.07,130.2a12.3,12.3,0,0,0-9-3.65h0a12.45,12.45,0,0,0-12.58,12.79,11.72,11.72,0,0,0,3.6,8.44,12.44,12.44,0,0,0,9,3.52h.06a12.28,12.28,0,0,0,9.05-3.6,11.59,11.59,0,0,0,3.59-8.46A12.33,12.33,0,0,0,192.07,130.2Zm-9,18.6a5.7,5.7,0,0,1-5-2.21c-1.14-1.54-1.73-3.93-1.74-7.1,0-3.5.56-6.15,1.7-7.86a5.53,5.53,0,0,1,5-2.46h0a5.56,5.56,0,0,1,5,2.43c1.16,1.7,1.76,4.34,1.77,7.84,0,3.07-.53,5.44-1.63,7s-2.71,2.31-5.09,2.32Z"/></g></g></svg>